<?xml version="1.0" encoding="utf-8"?>
<!-- Generator: Adobe Illustrator 27.6.1, SVG Export Plug-In . SVG Version: 6.00 Build 0)  -->
<svg version="1.1" id="Layer_1" xmlns="http://www.w3.org/2000/svg" xmlns:xlink="http://www.w3.org/1999/xlink" x="0px" y="0px"
	 viewBox="0 0 495.9 540" style="enable-background:new 0 0 495.9 540;" xml:space="preserve">
<style type="text/css">
	.st0{fill-rule:evenodd;clip-rule:evenodd;fill:#D9D9D9;}
	.st1{fill:none;stroke:#595959;stroke-linejoin:round;stroke-miterlimit:10;}
	.st2{fill:#666666;}
	.st3{fill-rule:evenodd;clip-rule:evenodd;fill:#D9EAD3;}
	.st4{fill-rule:evenodd;clip-rule:evenodd;fill:#F4CCCC;}
	.st5{fill-rule:evenodd;clip-rule:evenodd;fill:#CFE2F3;}
	.st6{fill:none;stroke:#595959;stroke-linejoin:round;stroke-miterlimit:10;stroke-dasharray:4,3;}
	.st7{fill-rule:evenodd;clip-rule:evenodd;fill:#EEEEEE;}
	.st8{fill-rule:evenodd;clip-rule:evenodd;fill:#D0E0E3;}
	.st9{fill:#434343;}
	.st10{fill-rule:evenodd;clip-rule:evenodd;fill:#D9D2E9;}
	.st11{fill-rule:evenodd;clip-rule:evenodd;fill:#FFF2CC;}
	.st12{fill-rule:evenodd;clip-rule:evenodd;fill:#C9DAF8;}
	.st13{fill-rule:evenodd;clip-rule:evenodd;fill:#EAD1DC;}
	.st14{fill-rule:evenodd;clip-rule:evenodd;fill-opacity:0;}
</style>
<path class="st0" d="M135.5,187.6L135.5,187.6c0-7.3,5.9-13.2,13.2-13.2h166.8c3.5,0,6.8,1.4,9.3,3.9c2.5,2.5,3.9,5.8,3.9,9.3v52.7
	c0,7.3-5.9,13.2-13.2,13.2H148.7l0,0c-7.3,0-13.2-5.9-13.2-13.2V187.6z"/>
<path class="st1" d="M135.5,187.6L135.5,187.6c0-7.3,5.9-13.2,13.2-13.2h166.8c3.5,0,6.8,1.4,9.3,3.9c2.5,2.5,3.9,5.8,3.9,9.3v52.7
	c0,7.3-5.9,13.2-13.2,13.2H148.7l0,0c-7.3,0-13.2-5.9-13.2-13.2V187.6z"/>
<path class="st2" d="M210,236.5l-4.6-13.4h1.7l3.2,9.7l0.4,1.4h0.1l0.4-1.4l3.4-9.7h1.7l-4.8,13.4H210z M218.2,236.5v-13.4h2.3
	l4,10.9h0.1l4-10.9h2.2v13.4h-1.5V228l0.1-2.5h-0.1l-4.1,11h-1.3l-4.1-11h-0.1l0.1,2.5v8.5H218.2z M234,236.5v-13.4h8.2v1.5h-6.6
	v4.2h6v1.5h-6v4.6h6.6v1.5H234z M244.9,236.5v-13.4h2.3l4,10.9h0.1l4-10.9h2.2v13.4h-1.5V228l0.1-2.5h-0.1l-4.1,11h-1.3l-4.1-11
	h-0.1l0.1,2.5v8.5H244.9z"/>
<path class="st3" d="M261.3,190.3V209l0,0c0,1.8-0.7,3.5-2,4.8c-1.3,1.3-3,2-4.8,2h-22.4c0,0,0,0,0,0l0-32.3l0,0c0,0,0,0,0,0l22.4,0
	l0,0C258.2,183.4,261.3,186.5,261.3,190.3z"/>
<path class="st1" d="M261.3,190.3V209l0,0c0,1.8-0.7,3.5-2,4.8c-1.3,1.3-3,2-4.8,2h-22.4c0,0,0,0,0,0l0-32.3l0,0c0,0,0,0,0,0l22.4,0
	l0,0C258.2,183.4,261.3,186.5,261.3,190.3z"/>
<path class="st3" d="M232.1,183.4v32.3c0,0,0,0,0,0c0,0,0,0,0,0l-22.2,0c-3.9,0-7-3.1-7-7v-18.4c0-3.9,3.1-7,7-7H232.1L232.1,183.4
	C232.1,183.4,232.1,183.4,232.1,183.4L232.1,183.4z"/>
<path class="st1" d="M232.1,183.4v32.3c0,0,0,0,0,0c0,0,0,0,0,0l-22.2,0c-3.9,0-7-3.1-7-7v-18.4c0-3.9,3.1-7,7-7H232.1L232.1,183.4
	C232.1,183.4,232.1,183.4,232.1,183.4L232.1,183.4z"/>
<path class="st4" d="M198.3,190.3V209l0,0c0,1.8-0.7,3.5-2,4.8c-1.3,1.3-3,2-4.8,2h-22.4c0,0,0,0,0,0l0-32.3l0,0c0,0,0,0,0,0l22.4,0
	l0,0C195.2,183.4,198.3,186.5,198.3,190.3z"/>
<path class="st1" d="M198.3,190.3V209l0,0c0,1.8-0.7,3.5-2,4.8c-1.3,1.3-3,2-4.8,2h-22.4c0,0,0,0,0,0l0-32.3l0,0c0,0,0,0,0,0l22.4,0
	l0,0C195.2,183.4,198.3,186.5,198.3,190.3z"/>
<path class="st4" d="M169.1,183.4v32.3c0,0,0,0,0,0c0,0,0,0,0,0l-22.2,0c-3.9,0-7-3.1-7-7v-18.4c0-3.9,3.1-7,7-7H169.1L169.1,183.4
	C169.1,183.4,169.1,183.4,169.1,183.4L169.1,183.4z"/>
<path class="st1" d="M169.1,183.4v32.3c0,0,0,0,0,0c0,0,0,0,0,0l-22.2,0c-3.9,0-7-3.1-7-7v-18.4c0-3.9,3.1-7,7-7H169.1L169.1,183.4
	C169.1,183.4,169.1,183.4,169.1,183.4L169.1,183.4z"/>
<path class="st5" d="M324.3,190.3V209l0,0c0,1.8-0.7,3.5-2,4.8c-1.3,1.3-3,2-4.8,2h-22.4c0,0,0,0,0,0l0-32.3l0,0c0,0,0,0,0,0l22.4,0
	l0,0C321.3,183.4,324.3,186.5,324.3,190.3z"/>
<path class="st6" d="M324.3,190.3V209l0,0c0,1.8-0.7,3.5-2,4.8c-1.3,1.3-3,2-4.8,2h-22.4c0,0,0,0,0,0l0-32.3l0,0c0,0,0,0,0,0l22.4,0
	l0,0C321.3,183.4,324.3,186.5,324.3,190.3z"/>
<path class="st5" d="M295.1,183.4v32.3c0,0,0,0,0,0c0,0,0,0,0,0l-22.2,0c-3.9,0-7-3.1-7-7v-18.4c0-3.9,3.1-7,7-7H295.1L295.1,183.4
	C295.1,183.4,295.1,183.4,295.1,183.4L295.1,183.4z"/>
<path class="st6" d="M295.1,183.4v32.3c0,0,0,0,0,0c0,0,0,0,0,0l-22.2,0c-3.9,0-7-3.1-7-7v-18.4c0-3.9,3.1-7,7-7H295.1L295.1,183.4
	C295.1,183.4,295.1,183.4,295.1,183.4L295.1,183.4z"/>
<path class="st7" d="M16.1,329.5L16.1,329.5c0-16.9,13.7-30.6,30.6-30.6h387.5c8.1,0,15.9,3.2,21.6,9c5.7,5.7,9,13.5,9,21.6V452
	c0,16.9-13.7,30.6-30.6,30.6H46.7l0,0c-16.9,0-30.6-13.7-30.6-30.6V329.5z"/>
<path class="st1" d="M16.1,329.5L16.1,329.5c0-16.9,13.7-30.6,30.6-30.6h387.5c8.1,0,15.9,3.2,21.6,9c5.7,5.7,9,13.5,9,21.6V452
	c0,16.9-13.7,30.6-30.6,30.6H46.7l0,0c-16.9,0-30.6-13.7-30.6-30.6V329.5z"/>
<path class="st2" d="M221.7,460.5v-13.4h1.6v5.8h6.7v-5.8h1.6v13.4H230v-6.1h-6.7v6.1H221.7z M234.7,460.5v-13.4h5.2
	c0.7,0,1.4,0.1,2,0.4c0.6,0.3,1,0.6,1.4,1.2c0.3,0.5,0.5,1.1,0.5,1.8c0,0.7-0.2,1.3-0.5,1.8c-0.3,0.5-0.7,0.8-1.3,1.1v0.1
	c0.6,0.2,1.2,0.6,1.6,1.2c0.4,0.6,0.6,1.2,0.6,2c0,0.8-0.2,1.4-0.5,2c-0.3,0.6-0.8,1-1.4,1.4c-0.6,0.3-1.3,0.5-2.1,0.5H234.7z
	 M236.2,452.8h3.6c0.7,0,1.3-0.2,1.7-0.5c0.4-0.3,0.6-0.8,0.6-1.5c0-0.7-0.2-1.2-0.6-1.6c-0.4-0.3-0.9-0.5-1.6-0.5h-3.7V452.8z
	 M236.2,459h3.9c0.7,0,1.3-0.2,1.7-0.6c0.4-0.4,0.6-1,0.6-1.8c0-0.8-0.2-1.4-0.7-1.8c-0.4-0.4-1-0.6-1.8-0.6h-3.9V459z M246.5,460.5
	v-13.4h2.3l4,10.9h0.1l4-10.9h2.2v13.4h-1.5v-8.5l0.1-2.5h-0.1l-4.1,11h-1.3l-4.1-11H248l0.1,2.5v8.5H246.5z"/>
<path class="st7" d="M340.8,211.3L340.8,211.3c0-4.4,3.6-8,8-8h71.5c2.1,0,4.1,0.8,5.6,2.3c1.5,1.5,2.3,3.5,2.3,5.6v31.9
	c0,4.4-3.6,8-8,8h-71.5c-4.4,0-8-3.6-8-8V211.3z"/>
<path class="st1" d="M340.8,211.3L340.8,211.3c0-4.4,3.6-8,8-8h71.5c2.1,0,4.1,0.8,5.6,2.3c1.5,1.5,2.3,3.5,2.3,5.6v31.9
	c0,4.4-3.6,8-8,8h-71.5c-4.4,0-8-3.6-8-8V211.3z"/>
<path class="st2" d="M363.4,234.4c-1.3,0-2.4-0.3-3.2-1c-0.9-0.7-1.4-1.7-1.7-3l1.6-0.3c0.1,0.8,0.5,1.5,1,2
	c0.6,0.5,1.3,0.8,2.3,0.8c0.9,0,1.6-0.2,2.2-0.6c0.6-0.4,0.9-1,0.9-1.7c0-0.7-0.3-1.2-0.8-1.6c-0.5-0.4-1.2-0.7-2.2-1l-1-0.3
	c-0.7-0.2-1.3-0.5-1.8-0.8c-0.5-0.3-1-0.7-1.3-1.1c-0.3-0.5-0.5-1.1-0.5-1.8c0-0.7,0.2-1.3,0.6-1.8c0.4-0.5,0.9-1,1.6-1.3
	c0.7-0.3,1.4-0.5,2.3-0.5c0.9,0,1.7,0.2,2.3,0.5c0.6,0.3,1.1,0.8,1.5,1.3c0.3,0.5,0.5,1.1,0.6,1.7l-1.5,0.2
	c-0.1-0.7-0.4-1.2-0.9-1.6c-0.5-0.4-1.1-0.6-2-0.6c-0.8,0-1.5,0.2-2,0.5c-0.5,0.4-0.8,0.8-0.8,1.4c0,0.6,0.2,1,0.7,1.4
	c0.5,0.3,1.2,0.7,2.1,1l1,0.3c0.6,0.2,1.2,0.4,1.8,0.8c0.6,0.3,1,0.7,1.4,1.2c0.4,0.5,0.5,1.2,0.5,2c0,0.8-0.2,1.5-0.6,2.1
	c-0.4,0.6-1,1-1.7,1.3C365.1,234.3,364.3,234.4,363.4,234.4z M370.5,234.1v-13.4h2.3l4,10.9h0.1l4-10.9h2.2v13.4h-1.5v-8.5l0.1-2.5
	h-0.1l-4.1,11h-1.3l-4.1-11H372l0.1,2.5v8.5H370.5z M386.3,234.1v-13.4h8.2v1.5h-6.6v4.2h6v1.5h-6v4.6h6.6v1.5H386.3z M397.2,234.1
	v-13.4h2.3l4,10.9h0.1l4-10.9h2.2v13.4h-1.5v-8.5l0.1-2.5h-0.1l-4.1,11h-1.3l-4.1-11h-0.1l0.1,2.5v8.5H397.2z"/>
<path class="st8" d="M111.2,45h72.5v38.7h-72.5V45z"/>
<path class="st1" d="M111.2,45h72.5v38.7h-72.5V45z"/>
<path class="st9" d="M130.4,70.5V58.1h2.1l3.7,10.1h0.1l3.7-10.1h2.1v12.4h-1.4v-7.9l0.1-2.3h-0.1l-3.8,10.2h-1.2l-3.8-10.2h-0.1
	l0.1,2.3v7.9H130.4z M143.9,70.5l4-6.4l-3.8-6h1.7l3,4.8h0.1l3-4.8h1.7l-3.8,6l4,6.4h-1.7l-3.2-5.2h-0.1l-3.2,5.2H143.9z
	 M160.1,70.7c-1.4,0-2.5-0.4-3.4-1.2c-0.8-0.8-1.2-2-1.2-3.6v-7.9h1.4v8c0,1.1,0.3,1.9,0.8,2.5c0.5,0.6,1.3,0.9,2.3,0.9
	c1,0,1.8-0.3,2.3-0.9c0.5-0.6,0.8-1.4,0.8-2.5v-8h1.5v7.9c0,1.5-0.4,2.7-1.2,3.6C162.7,70.3,161.5,70.7,160.1,70.7z"/>
<path class="st10" d="M195.8,45h72.5v38.7h-72.5V45z"/>
<path class="st1" d="M195.8,45h72.5v38.7h-72.5V45z"/>
<path class="st9" d="M211,70.5l-4.3-12.4h1.6l3,9l0.4,1.3h0.1l0.4-1.3l3.1-9h1.6l-4.4,12.4H211z M221,70.7c-0.9,0-1.6-0.2-2.2-0.6
	c-0.6-0.4-1.1-1-1.5-1.7c-0.3-0.7-0.5-1.6-0.5-2.5c0-0.9,0.2-1.8,0.5-2.5c0.4-0.7,0.8-1.3,1.5-1.7c0.6-0.4,1.4-0.6,2.2-0.6
	c1.3,0,2.3,0.4,3,1.2c0.7,0.8,1.1,1.8,1.1,3.1c0,0.1,0,0.3,0,0.4c0,0.1,0,0.3,0,0.4h-6.8c0,1,0.3,1.8,0.8,2.4c0.5,0.6,1.2,0.8,2,0.8
	c0.7,0,1.3-0.2,1.7-0.5s0.7-0.7,0.8-1.2l1.3,0.3c-0.2,0.7-0.6,1.4-1.2,1.9C223,70.5,222.1,70.7,221,70.7z M221,62.4
	c-0.7,0-1.3,0.2-1.8,0.7s-0.8,1.1-0.9,1.9h5.2c0-0.8-0.2-1.4-0.7-1.9C222.5,62.6,221.9,62.4,221,62.4z M230.9,70.7
	c-0.9,0-1.6-0.2-2.2-0.6c-0.6-0.4-1.1-1-1.5-1.7c-0.3-0.7-0.5-1.6-0.5-2.5c0-1,0.2-1.8,0.5-2.5c0.4-0.7,0.9-1.3,1.5-1.7
	c0.6-0.4,1.4-0.6,2.2-0.6c1.1,0,2,0.3,2.6,0.8c0.7,0.6,1.1,1.3,1.2,2.2l-1.4,0.2c-0.1-0.6-0.4-1-0.8-1.4c-0.4-0.4-1-0.5-1.6-0.5
	c-0.8,0-1.5,0.3-2,0.9c-0.5,0.6-0.8,1.5-0.8,2.6c0,1.1,0.3,2,0.8,2.6c0.5,0.6,1.2,0.9,2,0.9c1.2,0,2.1-0.6,2.4-1.9l1.3,0.3
	c-0.2,0.9-0.6,1.6-1.3,2.1C232.8,70.5,231.9,70.7,230.9,70.7z M239.7,70.6c-0.7,0-1.3-0.2-1.7-0.6c-0.4-0.4-0.7-1-0.7-1.8v-5.5h-1.5
	v-1.3h1.5v-2.5h1.5v2.5h2.1v1.3h-2.1v5.2c0,0.4,0.1,0.8,0.3,1c0.2,0.2,0.5,0.4,0.9,0.4c0.2,0,0.4,0,0.5-0.1c0.1-0.1,0.3-0.1,0.4-0.2
	v1.4c-0.2,0.1-0.3,0.1-0.5,0.1C240.2,70.6,240,70.6,239.7,70.6z M246.3,70.7c-0.9,0-1.7-0.2-2.3-0.6c-0.7-0.4-1.2-1-1.5-1.7
	s-0.5-1.6-0.5-2.5c0-1,0.2-1.8,0.5-2.5s0.9-1.3,1.5-1.7c0.7-0.4,1.4-0.6,2.3-0.6s1.7,0.2,2.3,0.6c0.7,0.4,1.2,1,1.5,1.7
	c0.4,0.7,0.5,1.6,0.5,2.5c0,0.9-0.2,1.8-0.5,2.5c-0.3,0.7-0.8,1.3-1.5,1.7C247.9,70.5,247.2,70.7,246.3,70.7z M246.3,69.4
	c0.9,0,1.5-0.3,2.1-0.9c0.5-0.6,0.8-1.5,0.8-2.6c0-1.1-0.3-2-0.8-2.6s-1.2-0.9-2.1-0.9c-0.8,0-1.5,0.3-2.1,0.9
	c-0.5,0.6-0.8,1.5-0.8,2.6c0,1.1,0.3,2,0.8,2.6C244.8,69.1,245.5,69.4,246.3,69.4z M252.4,70.5v-9.1h1.4v1.3h0.1
	c0.2-0.5,0.5-0.8,0.9-1.1c0.5-0.3,0.9-0.4,1.4-0.4c0.2,0,0.4,0,0.5,0c0.1,0,0.3,0.1,0.4,0.1v1.5c-0.3-0.2-0.7-0.2-1.1-0.2
	c-0.4,0-0.8,0.1-1.1,0.4c-0.3,0.2-0.6,0.5-0.8,0.9c-0.2,0.4-0.3,0.8-0.3,1.3v5.4H252.4z"/>
<path class="st11" d="M343.9,45h72.5v38.7h-72.5V45z"/>
<path class="st1" d="M343.9,45h72.5v38.7h-72.5V45z"/>
<path class="st9" d="M360.7,70.7c-1.2,0-2.2-0.3-3-1c-0.8-0.6-1.3-1.6-1.5-2.8l1.5-0.3c0.1,0.8,0.4,1.4,1,1.9
	c0.5,0.5,1.2,0.7,2.1,0.7c0.8,0,1.5-0.2,2-0.6c0.5-0.4,0.8-0.9,0.8-1.6c0-0.6-0.2-1.1-0.7-1.5c-0.5-0.3-1.1-0.6-2-0.9l-1-0.3
	c-0.6-0.2-1.2-0.4-1.7-0.7c-0.5-0.3-0.9-0.6-1.2-1.1c-0.3-0.4-0.4-1-0.4-1.7c0-0.6,0.2-1.2,0.5-1.7s0.8-0.9,1.4-1.2
	c0.6-0.3,1.3-0.5,2.1-0.5c0.9,0,1.6,0.2,2.2,0.5c0.6,0.3,1,0.7,1.3,1.2c0.3,0.5,0.5,1,0.5,1.6l-1.4,0.2c-0.1-0.6-0.4-1.1-0.8-1.5
	c-0.4-0.4-1-0.6-1.8-0.6c-0.7,0-1.4,0.2-1.9,0.5c-0.5,0.3-0.8,0.8-0.8,1.3c0,0.5,0.2,0.9,0.7,1.3c0.5,0.3,1.1,0.6,2,0.9l1,0.3
	c0.6,0.2,1.1,0.4,1.7,0.7c0.5,0.3,0.9,0.6,1.3,1.1c0.3,0.5,0.5,1.1,0.5,1.8s-0.2,1.4-0.6,2c-0.4,0.5-0.9,1-1.5,1.2
	C362.3,70.6,361.5,70.7,360.7,70.7z M370.8,70.7c-0.9,0-1.6-0.2-2.2-0.6c-0.6-0.4-1.1-1-1.5-1.7c-0.3-0.7-0.5-1.6-0.5-2.5
	c0-1,0.2-1.8,0.5-2.5c0.4-0.7,0.9-1.3,1.5-1.7s1.4-0.6,2.2-0.6c1.1,0,2,0.3,2.6,0.8c0.7,0.6,1.1,1.3,1.2,2.2l-1.4,0.2
	c-0.1-0.6-0.4-1-0.8-1.4c-0.4-0.4-1-0.5-1.6-0.5c-0.8,0-1.5,0.3-2,0.9c-0.5,0.6-0.8,1.5-0.8,2.6c0,1.1,0.3,2,0.8,2.6
	c0.5,0.6,1.2,0.9,2,0.9c1.2,0,2.1-0.6,2.4-1.9l1.3,0.3c-0.2,0.9-0.6,1.6-1.3,2.1C372.7,70.5,371.9,70.7,370.8,70.7z M379.3,70.7
	c-0.9,0-1.7-0.3-2.3-0.8c-0.6-0.5-0.9-1.2-0.9-2.1c0-0.6,0.2-1.1,0.5-1.5c0.3-0.4,0.7-0.7,1.3-0.9c0.5-0.2,1.1-0.3,1.7-0.3
	c0.5,0,1,0,1.5,0.1c0.4,0.1,0.8,0.2,1.2,0.3v-1c0-0.7-0.2-1.2-0.7-1.6c-0.4-0.4-1-0.6-1.7-0.6c-1.2,0-2,0.5-2.3,1.6l-1.3-0.3
	c0.2-0.8,0.6-1.4,1.2-1.9c0.7-0.5,1.5-0.7,2.4-0.7c1.2,0,2.1,0.3,2.8,0.9c0.7,0.6,1,1.4,1,2.5v6h-1.4v-1.2h-0.1
	c-0.3,0.4-0.6,0.7-1.1,1C380.7,70.6,380.1,70.7,379.3,70.7z M379.6,69.5c0.5,0,1-0.1,1.4-0.3c0.4-0.2,0.7-0.6,1-1
	c0.2-0.4,0.4-0.9,0.4-1.4c-0.8-0.3-1.6-0.5-2.4-0.5c-0.7,0-1.2,0.1-1.6,0.4c-0.4,0.2-0.6,0.7-0.6,1.2c0,0.5,0.2,0.8,0.5,1.1
	C378.6,69.3,379,69.5,379.6,69.5z M386.1,70.5V57h1.5v13.5H386.1z M392.8,70.7c-0.9,0-1.7-0.3-2.3-0.8c-0.6-0.5-0.9-1.2-0.9-2.1
	c0-0.6,0.2-1.1,0.5-1.5c0.3-0.4,0.7-0.7,1.3-0.9c0.5-0.2,1.1-0.3,1.7-0.3c0.5,0,1,0,1.5,0.1c0.4,0.1,0.8,0.2,1.2,0.3v-1
	c0-0.7-0.2-1.2-0.7-1.6c-0.4-0.4-1-0.6-1.7-0.6c-1.2,0-2,0.5-2.3,1.6l-1.3-0.3c0.2-0.8,0.6-1.4,1.2-1.9c0.7-0.5,1.5-0.7,2.4-0.7
	c1.2,0,2.1,0.3,2.8,0.9c0.7,0.6,1,1.4,1,2.5v6h-1.4v-1.2h-0.1c-0.2,0.4-0.6,0.7-1.1,1C394.1,70.6,393.5,70.7,392.8,70.7z M393,69.5
	c0.5,0,1-0.1,1.4-0.3c0.4-0.2,0.7-0.6,1-1c0.2-0.4,0.4-0.9,0.4-1.4c-0.8-0.3-1.6-0.5-2.4-0.5c-0.7,0-1.2,0.1-1.6,0.4
	c-0.4,0.2-0.6,0.7-0.6,1.2c0,0.5,0.2,0.8,0.5,1.1C392,69.3,392.5,69.5,393,69.5z M399.6,70.5v-9.1h1.4v1.3h0.1
	c0.2-0.5,0.5-0.8,0.9-1.1c0.5-0.3,0.9-0.4,1.4-0.4c0.2,0,0.4,0,0.5,0c0.1,0,0.3,0.1,0.4,0.1v1.5c-0.3-0.2-0.7-0.2-1.1-0.2
	c-0.4,0-0.8,0.1-1.1,0.4c-0.3,0.2-0.6,0.5-0.8,0.9c-0.2,0.4-0.3,0.8-0.3,1.3v5.4H399.6z"/>
<path class="st7" d="M228.5,265.2l3.6-3.6l3.6,3.6h-1.8v22h1.8l-3.6,3.6l-3.6-3.6h1.8v-22H228.5z"/>
<path class="st1" d="M228.5,265.2l3.6-3.6l3.6,3.6h-1.8v22h1.8l-3.6,3.6l-3.6-3.6h1.8v-22H228.5z"/>
<path class="st12" d="M168.3,111.2L168.3,111.2c0-3.6,2.9-6.5,6.5-6.5h87.9c1.7,0,3.4,0.7,4.6,1.9c1.2,1.2,1.9,2.9,1.9,4.6V137
	c0,3.6-2.9,6.5-6.5,6.5h-87.9l0,0c-3.6,0-6.5-2.9-6.5-6.5V111.2z"/>
<path class="st1" d="M168.3,111.2L168.3,111.2c0-3.6,2.9-6.5,6.5-6.5h87.9c1.7,0,3.4,0.7,4.6,1.9c1.2,1.2,1.9,2.9,1.9,4.6V137
	c0,3.6-2.9,6.5-6.5,6.5h-87.9l0,0c-3.6,0-6.5-2.9-6.5-6.5V111.2z"/>
<path class="st2" d="M200.2,128.5l-4.6-13.4h1.7l3.2,9.7l0.4,1.4h0.1l0.4-1.4l3.4-9.7h1.7l-4.8,13.4H200.2z M208.4,128.5v-13.4h4.9
	c1.3,0,2.3,0.3,3,1c0.8,0.7,1.2,1.7,1.2,2.9c0,0.7-0.1,1.3-0.4,1.8c-0.3,0.5-0.7,1-1.1,1.3c-0.5,0.3-1,0.6-1.6,0.7l0,0l3.3,5.5v0.1
	h-1.7l-3.3-5.5H210v5.5H208.4z M210,121.6h3.4c0.8,0,1.4-0.2,1.8-0.6s0.7-1,0.7-1.9s-0.2-1.4-0.7-1.8c-0.5-0.4-1.1-0.6-1.8-0.6H210
	V121.6z M219.6,128.5v-13.4h8.2v1.5h-6.6v4.2h6v1.5h-6v4.6h6.6v1.5H219.6z M235.4,128.8c-1.2,0-2.2-0.3-3.1-0.9
	c-0.9-0.6-1.6-1.4-2.1-2.4c-0.5-1.1-0.7-2.3-0.8-3.7c0-1.4,0.3-2.6,0.8-3.7c0.5-1.1,1.3-1.9,2.2-2.5c0.9-0.6,2-0.9,3.1-0.9
	c1.4,0,2.6,0.3,3.6,1c0.9,0.7,1.6,1.6,1.8,2.8l-1.5,0.4c-0.2-0.8-0.6-1.4-1.3-1.9c-0.7-0.5-1.5-0.7-2.6-0.7c-0.8,0-1.6,0.2-2.3,0.6
	c-0.7,0.4-1.2,1-1.6,1.8c-0.4,0.8-0.6,1.8-0.6,3c0,1.2,0.2,2.2,0.6,3c0.4,0.8,0.9,1.4,1.6,1.9c0.7,0.4,1.4,0.6,2.2,0.6
	c0.8,0,1.6-0.2,2.2-0.5c0.6-0.4,1.1-0.8,1.4-1.5c0.3-0.6,0.5-1.3,0.6-2h-4.1v-1.5h5.6v6.7h-1.5v-2.1h-0.1c-0.3,0.6-0.8,1.2-1.5,1.7
	C237.3,128.6,236.4,128.8,235.4,128.8z"/>
<path class="st12" d="M172.7,116.1L172.7,116.1c0-3.6,2.9-6.5,6.5-6.5h87.9c1.7,0,3.4,0.7,4.6,1.9s1.9,2.9,1.9,4.6V142
	c0,3.6-2.9,6.5-6.5,6.5h-87.9l0,0c-3.6,0-6.5-2.9-6.5-6.5V116.1z"/>
<path class="st1" d="M172.7,116.1L172.7,116.1c0-3.6,2.9-6.5,6.5-6.5h87.9c1.7,0,3.4,0.7,4.6,1.9s1.9,2.9,1.9,4.6V142
	c0,3.6-2.9,6.5-6.5,6.5h-87.9l0,0c-3.6,0-6.5-2.9-6.5-6.5V116.1z"/>
<path class="st2" d="M204.5,133.5l-4.6-13.4h1.7l3.2,9.7l0.4,1.4h0.1l0.4-1.4l3.4-9.7h1.7l-4.8,13.4H204.5z M212.8,133.5v-13.4h4.9
	c1.3,0,2.3,0.3,3,1c0.8,0.7,1.2,1.7,1.2,2.9c0,0.7-0.1,1.3-0.4,1.8c-0.3,0.5-0.7,1-1.1,1.3c-0.5,0.3-1,0.6-1.6,0.7l0,0l3.3,5.5v0.1
	h-1.7l-3.3-5.5h-2.6v5.5H212.8z M214.4,126.5h3.4c0.8,0,1.4-0.2,1.8-0.6c0.5-0.4,0.7-1,0.7-1.9c0-0.8-0.2-1.4-0.7-1.8
	c-0.5-0.4-1.1-0.6-1.8-0.6h-3.4V126.5z M223.9,133.5v-13.4h8.2v1.5h-6.6v4.2h6v1.5h-6v4.6h6.6v1.5H223.9z M239.8,133.8
	c-1.2,0-2.2-0.3-3.1-0.9c-0.9-0.6-1.6-1.4-2.1-2.4c-0.5-1.1-0.8-2.3-0.8-3.7c0-1.4,0.3-2.6,0.8-3.7c0.5-1.1,1.3-1.9,2.2-2.5
	c0.9-0.6,2-0.9,3.1-0.9c1.4,0,2.6,0.3,3.6,1c0.9,0.7,1.6,1.6,1.8,2.8l-1.5,0.4c-0.2-0.8-0.6-1.4-1.3-1.9c-0.7-0.5-1.5-0.7-2.6-0.7
	c-0.8,0-1.6,0.2-2.3,0.6c-0.7,0.4-1.2,1-1.6,1.8c-0.4,0.8-0.6,1.8-0.6,3c0,1.2,0.2,2.2,0.6,3c0.4,0.8,0.9,1.4,1.6,1.9
	c0.7,0.4,1.4,0.6,2.2,0.6c0.8,0,1.6-0.2,2.2-0.5c0.6-0.4,1.1-0.8,1.4-1.5c0.3-0.6,0.5-1.3,0.6-2h-4.1v-1.5h5.6v6.7H244v-2.1H244
	c-0.3,0.6-0.8,1.2-1.5,1.7C241.7,133.5,240.8,133.8,239.8,133.8z"/>
<path class="st12" d="M177.1,121.1L177.1,121.1c0-3.6,2.9-6.5,6.5-6.5h87.9c1.7,0,3.4,0.7,4.6,1.9c1.2,1.2,1.9,2.9,1.9,4.6v25.8
	c0,3.6-2.9,6.5-6.5,6.5h-87.9l0,0c-3.6,0-6.5-2.9-6.5-6.5V121.1z"/>
<path class="st1" d="M177.1,121.1L177.1,121.1c0-3.6,2.9-6.5,6.5-6.5h87.9c1.7,0,3.4,0.7,4.6,1.9c1.2,1.2,1.9,2.9,1.9,4.6v25.8
	c0,3.6-2.9,6.5-6.5,6.5h-87.9l0,0c-3.6,0-6.5-2.9-6.5-6.5V121.1z"/>
<path class="st7" d="M381,260.7l3.6-3.6l3.6,3.6h-1.8v22h1.8l-3.6,3.6l-3.6-3.6h1.8v-22H381z"/>
<path class="st1" d="M381,260.7l3.6-3.6l3.6,3.6h-1.8v22h1.8l-3.6,3.6l-3.6-3.6h1.8v-22H381z"/>
<path class="st13" d="M345.9,133.7L345.9,133.7c0-2.8,2.3-5.1,5.1-5.1h60.5c1.4,0,2.7,0.5,3.6,1.5c1,1,1.5,2.3,1.5,3.6v20.6
	c0,2.8-2.3,5.1-5.1,5.1H351l0,0c-2.8,0-5.1-2.3-5.1-5.1V133.7z"/>
<path class="st1" d="M345.9,133.7L345.9,133.7c0-2.8,2.3-5.1,5.1-5.1h60.5c1.4,0,2.7,0.5,3.6,1.5c1,1,1.5,2.3,1.5,3.6v20.6
	c0,2.8-2.3,5.1-5.1,5.1H351l0,0c-2.8,0-5.1-2.3-5.1-5.1V133.7z"/>
<path class="st13" d="M348.7,136.6L348.7,136.6c0-2.8,2.3-5.1,5.1-5.1h60.5c1.4,0,2.7,0.5,3.6,1.5c1,1,1.5,2.3,1.5,3.6v20.6
	c0,2.8-2.3,5.1-5.1,5.1h-60.5l0,0c-2.8,0-5.1-2.3-5.1-5.1V136.6z"/>
<path class="st1" d="M348.7,136.6L348.7,136.6c0-2.8,2.3-5.1,5.1-5.1h60.5c1.4,0,2.7,0.5,3.6,1.5c1,1,1.5,2.3,1.5,3.6v20.6
	c0,2.8-2.3,5.1-5.1,5.1h-60.5l0,0c-2.8,0-5.1-2.3-5.1-5.1V136.6z"/>
<path class="st13" d="M351.5,139.4L351.5,139.4c0-2.8,2.3-5.1,5.1-5.1H417c1.4,0,2.7,0.5,3.6,1.5c1,1,1.5,2.3,1.5,3.6V160
	c0,2.8-2.3,5.1-5.1,5.1h-60.5l0,0c-2.8,0-5.1-2.3-5.1-5.1V139.4z"/>
<path class="st1" d="M351.5,139.4L351.5,139.4c0-2.8,2.3-5.1,5.1-5.1H417c1.4,0,2.7,0.5,3.6,1.5c1,1,1.5,2.3,1.5,3.6V160
	c0,2.8-2.3,5.1-5.1,5.1h-60.5l0,0c-2.8,0-5.1-2.3-5.1-5.1V139.4z"/>
<path class="st7" d="M381,180.4l3.6-3.6l3.6,3.6h-1.8v11.9h1.8l-3.6,3.6l-3.6-3.6h1.8v-11.9H381z"/>
<path class="st1" d="M381,180.4l3.6-3.6l3.6,3.6h-1.8v11.9h1.8l-3.6,3.6l-3.6-3.6h1.8v-11.9H381z"/>
<path class="st7" d="M228.5,161.4l3.6-3.6l3.6,3.6h-1.8v5h1.8l-3.6,3.6l-3.6-3.6h1.8v-5H228.5z"/>
<path class="st1" d="M228.5,161.4l3.6-3.6l3.6,3.6h-1.8v5h1.8l-3.6,3.6l-3.6-3.6h1.8v-5H228.5z"/>
<path class="st7" d="M219.5,91.7l3.6-3.6l3.6,3.6h-1.8v5h1.8l-3.6,3.6l-3.6-3.6h1.8v-5H219.5z"/>
<path class="st1" d="M219.5,91.7l3.6-3.6l3.6,3.6h-1.8v5h1.8l-3.6,3.6l-3.6-3.6h1.8v-5H219.5z"/>
<path class="st7" d="M165.9,95v-5.1h5.1l-1.3,1.3l3.6,3.6l1.3-1.3v5.1h-5.1l1.3-1.3l-3.6-3.6L165.9,95z"/>
<path class="st1" d="M165.9,95v-5.1h5.1l-1.3,1.3l3.6,3.6l1.3-1.3v5.1h-5.1l1.3-1.3l-3.6-3.6L165.9,95z"/>
<path class="st7" d="M381,97.1l3.6-3.6l3.6,3.6h-1.8v18.1h1.8l-3.6,3.6l-3.6-3.6h1.8V97.1H381z"/>
<path class="st1" d="M381,97.1l3.6-3.6l3.6,3.6h-1.8v18.1h1.8l-3.6,3.6l-3.6-3.6h1.8V97.1H381z"/>
<path class="st14" d="M76.9,108h84.7v42H76.9V108z"/>
<path class="st2" d="M96.1,135l-4.6-13.4h1.7l3.2,9.7l0.4,1.4H97l0.4-1.4l3.4-9.7h1.7L97.7,135H96.1z M104.3,135v-13.4h4.9
	c1.3,0,2.3,0.3,3,1c0.8,0.7,1.2,1.7,1.2,2.9c0,0.7-0.1,1.3-0.4,1.8c-0.3,0.5-0.7,1-1.1,1.3c-0.5,0.3-1,0.6-1.6,0.7l0,0l3.3,5.5v0.1
	h-1.7l-3.3-5.5h-2.6v5.5H104.3z M105.9,128h3.4c0.8,0,1.4-0.2,1.8-0.6s0.7-1,0.7-1.9s-0.2-1.4-0.7-1.8c-0.5-0.4-1.1-0.6-1.8-0.6
	h-3.4V128z M115.5,135v-13.4h8.2v1.5h-6.6v4.2h6v1.5h-6v4.6h6.6v1.5H115.5z M131.3,135.3c-1.2,0-2.2-0.3-3.1-0.9
	c-0.9-0.6-1.6-1.4-2.1-2.4c-0.5-1.1-0.8-2.3-0.8-3.7c0-1.4,0.3-2.6,0.8-3.7c0.5-1.1,1.3-1.9,2.2-2.5c0.9-0.6,2-0.9,3.1-0.9
	c1.4,0,2.6,0.3,3.6,1s1.6,1.6,1.8,2.8l-1.5,0.4c-0.2-0.8-0.6-1.4-1.3-1.9c-0.7-0.5-1.5-0.7-2.6-0.7c-0.8,0-1.6,0.2-2.3,0.6
	c-0.7,0.4-1.2,1-1.6,1.8c-0.4,0.8-0.6,1.8-0.6,3c0,1.2,0.2,2.2,0.6,3s0.9,1.4,1.6,1.9c0.7,0.4,1.4,0.6,2.2,0.6
	c0.8,0,1.6-0.2,2.2-0.5c0.6-0.4,1.1-0.8,1.4-1.5c0.3-0.6,0.5-1.3,0.6-2h-4.1v-1.5h5.6v6.7h-1.5v-2.1h-0.1c-0.3,0.6-0.8,1.2-1.5,1.7
	C133.3,135,132.4,135.3,131.3,135.3z M142.9,135.3c-0.7,0-1.3-0.1-1.9-0.3c-0.6-0.2-1.1-0.6-1.5-1c-0.4-0.4-0.6-1-0.7-1.6l1.5-0.2
	c0.1,0.5,0.3,0.9,0.8,1.3c0.4,0.4,1,0.5,1.7,0.5c0.6,0,1.1-0.1,1.6-0.4s0.7-0.7,0.7-1.2c0-0.9-0.7-1.4-2-1.7l-1.2-0.2
	c-0.8-0.1-1.5-0.4-2-0.9c-0.5-0.5-0.8-1.1-0.8-1.9c0-0.6,0.2-1.1,0.5-1.5c0.3-0.4,0.8-0.7,1.3-1c0.6-0.2,1.2-0.3,1.8-0.3
	c0.6,0,1.1,0.1,1.7,0.3c0.5,0.2,1,0.5,1.3,0.9c0.4,0.4,0.6,0.9,0.7,1.6l-1.5,0.2c-0.1-0.5-0.4-0.9-0.8-1.2c-0.4-0.2-0.9-0.4-1.4-0.4
	c-0.6,0-1.1,0.1-1.5,0.4c-0.4,0.2-0.6,0.6-0.6,1c0,0.4,0.1,0.7,0.4,0.9c0.3,0.2,0.8,0.4,1.4,0.6l1.4,0.3c0.9,0.2,1.6,0.5,2,1
	c0.5,0.5,0.7,1.1,0.7,1.9c0,0.6-0.2,1.1-0.5,1.6c-0.3,0.4-0.8,0.8-1.4,1C144.2,135.1,143.6,135.3,142.9,135.3z"/>
<path class="st14" d="M415.5,127.1h84.7v42h-84.7V127.1z"/>
<path class="st2" d="M435.6,154.3c-1.3,0-2.4-0.3-3.2-1s-1.4-1.7-1.7-3l1.6-0.3c0.1,0.8,0.5,1.5,1,2s1.3,0.8,2.3,0.8
	c0.9,0,1.6-0.2,2.2-0.6c0.6-0.4,0.9-1,0.9-1.7c0-0.7-0.2-1.2-0.8-1.6c-0.5-0.4-1.2-0.7-2.2-1l-1-0.3c-0.7-0.2-1.3-0.5-1.8-0.8
	s-1-0.7-1.3-1.1c-0.3-0.5-0.5-1.1-0.5-1.8c0-0.7,0.2-1.3,0.6-1.8c0.4-0.5,0.9-1,1.6-1.3c0.7-0.3,1.4-0.5,2.3-0.5
	c0.9,0,1.7,0.2,2.3,0.5s1.1,0.8,1.5,1.3s0.5,1.1,0.6,1.7l-1.5,0.2c-0.1-0.7-0.4-1.2-0.9-1.6c-0.5-0.4-1.1-0.6-2-0.6
	c-0.8,0-1.5,0.2-2,0.5c-0.5,0.4-0.8,0.8-0.8,1.4c0,0.6,0.2,1,0.7,1.4c0.5,0.3,1.2,0.7,2.1,1l1,0.3c0.6,0.2,1.2,0.4,1.8,0.8
	c0.6,0.3,1,0.7,1.4,1.2s0.5,1.2,0.5,2s-0.2,1.5-0.6,2.1c-0.4,0.6-1,1-1.7,1.3C437.3,154.1,436.5,154.3,435.6,154.3z M442.8,154
	v-13.4h4.9c1.3,0,2.3,0.3,3,1c0.8,0.7,1.2,1.7,1.2,2.9c0,0.7-0.1,1.3-0.4,1.8c-0.3,0.5-0.7,1-1.1,1.3c-0.5,0.3-1,0.6-1.6,0.7l0,0
	l3.3,5.5v0.1h-1.7l-3.3-5.5h-2.6v5.5H442.8z M444.3,147.1h3.4c0.8,0,1.4-0.2,1.8-0.6s0.7-1,0.7-1.9s-0.2-1.4-0.7-1.8
	c-0.5-0.4-1.1-0.6-1.8-0.6h-3.4V147.1z M453.9,154v-13.4h8.2v1.5h-6.6v4.2h6v1.5h-6v4.6h6.6v1.5H453.9z M469.8,154.3
	c-1.2,0-2.2-0.3-3.1-0.9c-0.9-0.6-1.6-1.4-2.1-2.4c-0.5-1.1-0.7-2.3-0.8-3.7c0-1.4,0.3-2.6,0.8-3.7c0.5-1.1,1.3-1.9,2.2-2.5
	c0.9-0.6,2-0.9,3.1-0.9c1.4,0,2.6,0.3,3.6,1c0.9,0.7,1.6,1.6,1.8,2.8l-1.5,0.4c-0.2-0.8-0.6-1.4-1.3-1.9c-0.7-0.5-1.5-0.7-2.6-0.7
	c-0.8,0-1.6,0.2-2.3,0.6c-0.7,0.4-1.2,1-1.6,1.8c-0.4,0.8-0.6,1.8-0.6,3c0,1.2,0.2,2.2,0.6,3c0.4,0.8,0.9,1.4,1.6,1.9
	c0.7,0.4,1.4,0.6,2.2,0.6c0.8,0,1.6-0.2,2.2-0.5c0.6-0.4,1.1-0.8,1.4-1.5c0.3-0.6,0.5-1.3,0.6-2h-4.1v-1.5h5.6v6.7H474v-2.1h-0.1
	c-0.3,0.6-0.8,1.2-1.5,1.7C471.7,154,470.8,154.3,469.8,154.3z M481.3,154.3c-0.7,0-1.3-0.1-1.9-0.3c-0.6-0.2-1.1-0.6-1.5-1
	c-0.4-0.4-0.6-1-0.7-1.6l1.5-0.2c0.1,0.5,0.3,0.9,0.8,1.3c0.4,0.4,1,0.5,1.7,0.5c0.6,0,1.1-0.1,1.6-0.4s0.7-0.7,0.7-1.2
	c0-0.9-0.7-1.4-2-1.7l-1.2-0.2c-0.8-0.1-1.5-0.4-2-0.9c-0.5-0.5-0.8-1.1-0.8-1.9c0-0.6,0.2-1.1,0.5-1.5c0.3-0.4,0.8-0.7,1.3-1
	c0.6-0.2,1.2-0.3,1.8-0.3c0.6,0,1.1,0.1,1.7,0.3c0.5,0.2,1,0.5,1.3,0.9c0.4,0.4,0.6,0.9,0.7,1.6l-1.5,0.2c-0.1-0.5-0.4-0.9-0.8-1.2
	c-0.4-0.2-0.9-0.4-1.4-0.4c-0.6,0-1.1,0.1-1.5,0.4c-0.4,0.2-0.6,0.6-0.6,1c0,0.4,0.1,0.7,0.4,0.9c0.3,0.2,0.8,0.4,1.4,0.6l1.4,0.3
	c0.9,0.2,1.6,0.5,2,1c0.5,0.5,0.7,1.1,0.7,1.9c0,0.6-0.2,1.1-0.5,1.6c-0.3,0.4-0.8,0.8-1.4,1C482.7,154.2,482,154.3,481.3,154.3z"/>
<path class="st4" d="M91.8,325.4v17.2l0,0c0,2-0.8,3.9-2.2,5.3c-1.4,1.4-3.3,2.2-5.3,2.2H59.5c0,0,0,0,0,0l0-32.3l0,0c0,0,0,0,0,0
	l24.8,0l0,0C88.5,317.8,91.8,321.2,91.8,325.4z"/>
<path class="st1" d="M91.8,325.4v17.2l0,0c0,2-0.8,3.9-2.2,5.3c-1.4,1.4-3.3,2.2-5.3,2.2H59.5c0,0,0,0,0,0l0-32.3l0,0c0,0,0,0,0,0
	l24.8,0l0,0C88.5,317.8,91.8,321.2,91.8,325.4z"/>
<path class="st14" d="M59.5,317.8h32.3v27.6H59.5V317.8z"/>
<path class="st4" d="M59.5,317.8v32.3c0,0,0,0,0,0s0,0,0,0l-24.6,0c-4.3,0-7.7-3.5-7.7-7.7v-16.9c0-4.3,3.5-7.7,7.7-7.7H59.5
	L59.5,317.8C59.5,317.8,59.5,317.8,59.5,317.8L59.5,317.8z"/>
<path class="st1" d="M59.5,317.8v32.3c0,0,0,0,0,0s0,0,0,0l-24.6,0c-4.3,0-7.7-3.5-7.7-7.7v-16.9c0-4.3,3.5-7.7,7.7-7.7H59.5
	L59.5,317.8C59.5,317.8,59.5,317.8,59.5,317.8L59.5,317.8z"/>
<path class="st14" d="M27.2,317.8h32.3v27.6H27.2V317.8z"/>
<path class="st3" d="M161.6,325.4v17.2l0,0c0,2-0.8,3.9-2.2,5.3c-1.4,1.4-3.3,2.2-5.3,2.2h-24.8c0,0,0,0,0,0l0-32.3l0,0c0,0,0,0,0,0
	l24.8,0l0,0C158.2,317.8,161.6,321.2,161.6,325.4z"/>
<path class="st1" d="M161.6,325.4v17.2l0,0c0,2-0.8,3.9-2.2,5.3c-1.4,1.4-3.3,2.2-5.3,2.2h-24.8c0,0,0,0,0,0l0-32.3l0,0c0,0,0,0,0,0
	l24.8,0l0,0C158.2,317.8,161.6,321.2,161.6,325.4z"/>
<path class="st14" d="M129.2,317.8h32.3v27.6h-32.3V317.8z"/>
<path class="st3" d="M129.2,317.8v32.3c0,0,0,0,0,0c0,0,0,0,0,0l-24.6,0c-4.3,0-7.7-3.5-7.7-7.7v-16.9c0-4.3,3.5-7.7,7.7-7.7H129.2
	L129.2,317.8C129.2,317.8,129.2,317.8,129.2,317.8L129.2,317.8z"/>
<path class="st1" d="M129.2,317.8v32.3c0,0,0,0,0,0c0,0,0,0,0,0l-24.6,0c-4.3,0-7.7-3.5-7.7-7.7v-16.9c0-4.3,3.5-7.7,7.7-7.7H129.2
	L129.2,317.8C129.2,317.8,129.2,317.8,129.2,317.8L129.2,317.8z"/>
<path class="st14" d="M96.9,317.8h32.3v27.6H96.9V317.8z"/>
<path class="st5" d="M231.3,325.4v17.2l0,0c0,2-0.8,3.9-2.2,5.3c-1.4,1.4-3.3,2.2-5.3,2.2H199c0,0,0,0,0,0l0-32.3l0,0c0,0,0,0,0,0
	l24.8,0l0,0C228,317.8,231.3,321.2,231.3,325.4z"/>
<path class="st6" d="M231.3,325.4v17.2l0,0c0,2-0.8,3.9-2.2,5.3c-1.4,1.4-3.3,2.2-5.3,2.2H199c0,0,0,0,0,0l0-32.3l0,0c0,0,0,0,0,0
	l24.8,0l0,0C228,317.8,231.3,321.2,231.3,325.4z"/>
<path class="st5" d="M199,317.8v32.3c0,0,0,0,0,0s0,0,0,0l-24.6,0c-4.3,0-7.7-3.5-7.7-7.7v-16.9c0-4.3,3.5-7.7,7.7-7.7H199
	L199,317.8C199,317.8,199,317.8,199,317.8L199,317.8z"/>
<path class="st6" d="M199,317.8v32.3c0,0,0,0,0,0s0,0,0,0l-24.6,0c-4.3,0-7.7-3.5-7.7-7.7v-16.9c0-4.3,3.5-7.7,7.7-7.7H199
	L199,317.8C199,317.8,199,317.8,199,317.8L199,317.8z"/>
<path class="st14" d="M166.7,317.8H199v27.6h-32.3V317.8z"/>
<path class="st14" d="M169.1,183.4h29.2v27.6h-29.2V183.4z"/>
<path class="st14" d="M139.8,183.4h29.2v27.6h-29.2V183.4z"/>
<path class="st14" d="M232.1,183.4h29.2v27.6h-29.2V183.4z"/>
<path class="st14" d="M202.9,183.4h29.2v27.6h-29.2V183.4z"/>
<path class="st14" d="M295.1,183.4h29.2v27.6h-29.2V183.4z"/>
<path class="st14" d="M265.9,183.4h29.2v27.6h-29.2V183.4z"/>
<path class="st14" d="M169.3,183.4l17.8-32.7"/>
<path class="st14" d="M232.1,183l7.4-32.8"/>
<path class="st14" d="M177.1,115.3h100.8v37.2H177.1V115.3z"/>
<path class="st14" d="M199,318.7h32.3v27.6H199V318.7z"/>
<path class="st14" d="M293.4,179.7l-33-35.5"/>
</svg>
